# xmcd
#
# Track frame offsets:
#	150
#	14850
#	36175
#	51360
#	69060
#	83638
#	101349
#	119902
#	137048
#	154889
#	170743
#	192004
#	208820
#	226896
#	244392
#	261329
#	280158
#	298805
#	312571
#	329911
#
# Disc length: 4588 seconds
#
# Revision: 0
# Processed by: cddbd v1.5.2PL0 Copyright (c) Steve Scherf et al.
# Submitted via: SynApp - FreeCDDB Version: 2.5
#
DISCID=3e11ea14
DTITLE=PeLe featering Michael Lempart - Carry Love
DYEAR=2000
DGENRE=Ballad
TTITLE0=Carry Love Micha - Carry Love Micha
TTITLE1=Easy - Easy
TTITLE2=Feelings - Feelings
TTITLE3=Can You Feel - Can You Feel
TTITLE4=As time goes by - As time goes by
TTITLE5=Hold the Line - Hold the Line
TTITLE6=Hello - Hello
TTITLE7=Just the way - Just the way
TTITLE8=Lady in Red - Lady in Red
TTITLE9=Sorry seems to be - Sorry seems to be
TTITLE10=Manhattan - Manhattan Skyline
TTITLE11=She believes in me - She believes in me
TTITLE12=Your - Your Song
TTITLE13=Wind auf der Haut - Wind auf der Haut
TTITLE14=Excidet - Excidet
TTITLE15=Cherish - Cherish
TTITLE16=Careless - Careless Wispher
TTITLE17=Cant wait until - Cant wait until
TTITLE18=Blue - Blue Bossa
TTITLE19=Mac the Knife - Mac the Knife
EXTD=
EXTT0=
EXTT1=
EXTT2=
EXTT3=
EXTT4=
EXTT5=
EXTT6=
EXTT7=
EXTT8=
EXTT9=
EXTT10=
EXTT11=
EXTT12=
EXTT13=
EXTT14=
EXTT15=
EXTT16=
EXTT17=
EXTT18=
EXTT19=
PLAYORDER=
